<svg width="312" height="48" viewBox="0 0 312 48" fill="none" xmlns="http://www.w3.org/2000/svg">
<path d="M4.78024 31.7472C4.78024 31.7472 22.9522 32.8584 40.9972 12.785C41.8227 11.8677 42.6341 11.0175 43.4314 10.2237C39.0957 4.12759 31.973 0.155228 23.9259 0.155228C10.7106 0.155228 0 10.8658 0 24.0776C0 37.2894 10.7106 48 23.9259 48C37.1413 48 47.8518 37.2894 47.8518 24.0776C47.8518 20.9555 47.2521 17.9709 46.1655 15.2368C46.1408 15.265 46.1161 15.2933 46.095 15.3215C28.3675 36.2275 4.78024 31.7472 4.78024 31.7472Z" fill="#FFC400"/>
<path d="M43.4314 10.2237C44.5321 11.7689 45.4493 13.4517 46.162 15.2368C58.9928 0.141114 67.9994 0.878437 67.9994 0.878437C67.9994 0.878437 57.9556 -4.23343 43.4314 10.2237Z" fill="#FFC400"/>
<path d="M16.1365 15.3285C16.1365 15.3285 29.4224 13.868 40.5951 10.827L37.5999 13.9809C37.5999 13.9809 26.2085 15.8612 16.1365 15.3285Z" fill="white"/>
<path d="M11.0635 20.3134C11.0635 20.3134 26.2438 18.6694 35.829 15.7413L31.8708 18.9975C31.8672 18.9975 21.266 21.0719 11.0635 20.3134Z" fill="white"/>
<path d="M46.1585 15.2298C46.1126 15.2791 46.0879 15.3038 46.0844 15.3074C28.3604 36.217 4.77319 31.7331 4.77319 31.7331C4.77319 31.7331 22.9416 32.8443 40.9902 12.7708C41.3147 12.411 42.3025 11.3809 43.4314 10.2202C44.5321 11.7654 45.4494 13.4447 46.1585 15.2298Z" fill="white"/>
<path d="M118.319 38.4586C118.069 38.5856 117.893 38.6773 117.716 38.769C115.511 39.912 113.317 41.0761 111.007 42.0039C109.186 42.7341 107.32 43.3126 105.376 43.6019C103.539 43.8735 101.697 43.9688 99.8628 43.5455C98.7516 43.2915 97.7427 42.8329 96.9313 42.0109C95.9929 41.055 95.5873 39.8697 95.485 38.5609C95.3862 37.3086 95.5732 36.0845 95.813 34.8604C96.3775 31.9642 97.1712 29.1244 97.912 26.2706C99.5911 19.7973 101.309 13.3347 103.041 6.87204C103.249 6.09243 103.503 5.32693 103.726 4.55085C103.789 4.32508 103.895 4.22983 104.145 4.22983C106.615 4.24042 109.088 4.23336 111.557 4.23689C111.966 4.23689 111.956 4.24747 111.874 4.72371C111.508 6.83677 110.925 8.89691 110.372 10.9676C108.657 17.3668 106.943 23.7695 105.235 30.1686C104.946 31.2516 104.724 32.3452 104.734 33.474C104.742 34.0526 104.837 34.6205 105.038 35.1638C105.694 36.9347 107.257 37.8095 109.158 37.7178C112.46 37.5555 115.367 36.3103 118.044 34.4512C118.542 34.1055 119.014 33.728 119.505 33.3682C119.97 33.026 120.281 32.5745 120.496 32.0418C120.828 31.2163 121.007 30.3485 121.237 29.4948C123.198 22.1185 125.152 14.7352 127.117 7.35886C127.371 6.39934 127.682 5.45393 127.968 4.50499C128.07 4.16634 128.073 4.16634 128.454 4.16634C129.992 4.16634 131.53 4.16634 133.069 4.16634C134 4.16634 134.935 4.16281 135.866 4.16986C136.018 4.16986 136.176 4.13459 136.325 4.2122C136.385 4.37447 136.3 4.51557 136.261 4.66021C134.564 11.0488 132.871 17.4373 131.171 23.8259C129.82 28.9093 128.465 33.9926 127.114 39.0759C127.11 39.0901 127.107 39.1077 127.103 39.1218C126.987 39.5769 126.987 39.5698 127.438 39.6298C128.761 39.8097 130.084 40.0037 131.407 40.1766C131.633 40.2083 131.689 40.2648 131.622 40.4976C131.368 41.3936 131.132 42.2932 130.903 43.1962C130.843 43.4361 130.719 43.5067 130.479 43.5067C127.495 43.4961 124.514 43.5631 121.53 43.482C121.297 43.4749 121.064 43.4749 120.831 43.4749C119.6 43.4784 118.827 42.6918 118.619 41.5523C118.521 41.002 118.475 40.4447 118.436 39.8873C118.394 39.4393 118.358 38.9913 118.319 38.4586Z" fill="#252525"/>
<path d="M56 43.9335C56.1693 43.1328 56.3316 42.3355 56.635 41.5736C56.8466 41.0409 57.2347 40.741 57.8097 40.6528C58.6105 40.5329 59.4148 40.5823 60.2155 40.5788C63.7679 40.5717 67.3202 40.5788 70.8726 40.5823C72.4 40.5823 73.931 40.5682 75.4585 40.487C76.9154 40.4094 78.3406 40.166 79.7129 39.651C80.6195 39.3123 81.4414 38.8361 82.1505 38.1694C83.8437 36.5714 84.26 34.2854 83.237 32.1935C82.7396 31.174 82.0058 30.3451 81.1098 29.6642C79.734 28.6165 78.3441 27.59 76.9648 26.5458C75.5926 25.5086 74.3085 24.3798 73.2819 22.9828C72.4424 21.8364 71.818 20.5876 71.5463 19.1836C71.2112 17.4444 71.4617 15.7759 72.1602 14.1637C72.9362 12.3787 74.118 10.8795 75.4938 9.5284C78.3335 6.73098 81.7377 5.05534 85.671 4.42742C88.2603 4.01469 90.8637 3.95472 93.4742 4.02527C95.358 4.07466 97.2417 4.12052 99.122 4.1699C99.5453 4.18049 99.5453 4.18049 99.5911 4.59322C99.6335 4.96715 99.5982 5.33403 99.503 5.69738C99.3442 6.30413 98.935 6.67101 98.3388 6.84033C97.979 6.94264 97.6086 6.95675 97.2382 6.95675C95.0934 6.95322 92.9451 6.8615 90.8003 6.96027C88.9941 7.04494 87.195 7.1931 85.4453 7.68697C84.3799 7.98682 83.3851 8.4313 82.5279 9.14741C80.3972 10.9183 79.854 13.7369 81.1733 16.171C81.6143 16.9823 82.2104 17.6632 82.923 18.2487C83.6991 18.8837 84.5281 19.4552 85.3606 20.0126C86.3484 20.6758 87.3467 21.3213 88.2921 22.0445C89.1035 22.6654 89.8584 23.3462 90.5286 24.1223C92.7334 26.6728 93.3225 29.5619 92.1337 32.7086C90.3134 37.5344 86.9445 40.8504 82.087 42.6177C80.3972 43.2351 78.644 43.5773 76.8519 43.7501C74.4214 43.9865 71.9802 43.99 69.5426 43.9794C66.5759 43.9688 63.6127 43.997 60.6459 44.0006C59.2419 44.0041 57.8344 43.9935 56.4304 43.99C56.2999 43.9829 56.1587 44.0112 56 43.9335Z" fill="#252525"/>
<path d="M153.134 9.5319C153.384 9.40491 153.561 9.31319 153.737 9.22147C155.942 8.07851 158.136 6.91439 160.447 5.98662C162.267 5.25639 164.133 4.67786 166.077 4.38859C167.915 4.11696 169.756 4.02172 171.591 4.44503C172.702 4.69902 173.711 5.15762 174.522 5.97956C175.46 6.93555 175.866 8.12084 175.968 9.4296C176.067 10.6819 175.88 11.906 175.64 13.1301C175.076 16.0263 174.282 18.8661 173.541 21.7199C171.862 28.1932 170.144 34.6558 168.412 41.1185C168.204 41.8981 167.95 42.6636 167.728 43.4397C167.664 43.6654 167.558 43.7607 167.308 43.7607C164.839 43.7501 162.366 43.7571 159.896 43.7536C159.487 43.7536 159.498 43.743 159.579 43.2668C159.946 41.1537 160.528 39.0936 161.082 37.0229C162.796 30.6237 164.511 24.221 166.218 17.8219C166.507 16.7389 166.729 15.6453 166.719 14.5165C166.712 13.9379 166.617 13.37 166.415 12.8267C165.759 11.0558 164.197 10.181 162.295 10.2727C158.993 10.435 156.087 11.6802 153.409 13.5393C152.912 13.885 152.439 14.2625 151.949 14.6223C151.483 14.9645 151.172 15.416 150.957 15.9487C150.626 16.7742 150.446 17.642 150.216 18.4957C148.255 25.872 146.301 33.2553 144.336 40.6316C144.082 41.5912 143.771 42.5366 143.486 43.4855C143.383 43.8242 143.38 43.8242 142.999 43.8242C141.461 43.8242 139.923 43.8242 138.385 43.8242C137.453 43.8242 136.519 43.8277 135.587 43.8206C135.436 43.8206 135.277 43.8559 135.129 43.7783C135.069 43.616 135.153 43.4749 135.192 43.3303C136.889 36.9417 138.582 30.5532 140.283 24.1646C141.634 19.0812 142.988 13.9979 144.339 8.91456C144.343 8.90045 144.346 8.88282 144.35 8.8687C144.466 8.41364 144.466 8.42069 144.015 8.36072C142.692 8.18081 141.369 7.98679 140.046 7.81394C139.821 7.78219 139.764 7.72575 139.831 7.49292C140.085 6.5969 140.321 5.69735 140.551 4.79427C140.611 4.55439 140.734 4.48384 140.974 4.48384C143.958 4.49442 146.939 4.4274 149.924 4.50853C150.157 4.51559 150.389 4.51559 150.622 4.51559C151.853 4.51206 152.626 5.29873 152.834 6.43816C152.933 6.98847 152.979 7.54584 153.017 8.10321C153.056 8.55474 153.092 9.00276 153.134 9.5319Z" fill="#252525"/>
<path d="M183.002 1.37915C183.504 1.37915 183.996 1.50658 184.478 1.76853C184.956 2.02694 185.331 2.39508 185.6 2.8765C185.869 3.35791 186 3.86057 186 4.38092C186 4.89773 185.869 5.39331 185.604 5.87119C185.338 6.34906 184.97 6.7172 184.496 6.98269C184.021 7.24464 183.522 7.37915 183.002 7.37915C182.481 7.37915 181.986 7.24818 181.508 6.98269C181.034 6.7172 180.662 6.34906 180.396 5.87119C180.131 5.39331 180 4.89773 180 4.38092C180 3.85703 180.135 3.35791 180.404 2.8765C180.673 2.39508 181.048 2.02694 181.526 1.76853C182.007 1.50658 182.499 1.37915 183.002 1.37915ZM183.002 1.87473C182.581 1.87473 182.17 1.98446 181.77 2.20039C181.37 2.41632 181.058 2.72428 180.835 3.12782C180.609 3.52782 180.496 3.94552 180.496 4.38092C180.496 4.81278 180.605 5.22694 180.828 5.6234C181.048 6.01986 181.359 6.32782 181.756 6.55083C182.152 6.77384 182.566 6.88358 182.998 6.88358C183.43 6.88358 183.844 6.77384 184.241 6.55083C184.637 6.33136 184.949 6.01986 185.168 5.6234C185.388 5.22694 185.497 4.81278 185.497 4.38092C185.497 3.94552 185.384 3.52782 185.161 3.12782C184.938 2.72782 184.627 2.41632 184.223 2.20039C183.83 1.98446 183.419 1.87473 183.002 1.87473ZM181.685 6.03756V2.80924H182.793C183.172 2.80924 183.448 2.83756 183.618 2.89773C183.788 2.95791 183.922 3.06057 184.021 3.20924C184.124 3.35791 184.173 3.51366 184.173 3.68358C184.173 3.92074 184.088 4.12605 183.922 4.2995C183.756 4.47296 183.529 4.57207 183.253 4.59331C183.366 4.63933 183.458 4.6995 183.526 4.76322C183.657 4.89066 183.816 5.10304 184.004 5.40393L184.396 6.03756H183.759L183.473 5.52782C183.246 5.12782 183.065 4.8765 182.927 4.77738C182.832 4.70304 182.694 4.66765 182.51 4.66765H182.205V6.03756H181.685ZM182.205 4.22163H182.839C183.14 4.22163 183.349 4.17561 183.458 4.08712C183.568 3.99862 183.625 3.87827 183.625 3.72959C183.625 3.63402 183.596 3.54906 183.547 3.47473C183.494 3.40039 183.419 3.34375 183.327 3.30481C183.235 3.26588 183.058 3.24818 182.804 3.24818H182.212V4.22163H182.205Z" fill="#252525"/>
<path d="M194.158 22.2701H192V8.01821H194.158V22.2701Z" fill="#252525"/>
<path d="M203.621 22.2701H201.73L198.272 13.3001C198.364 13.7372 198.41 14.0802 198.41 14.3291V22.2701H196.307V8.01821H198.198L201.656 16.8061C201.564 16.369 201.518 16.026 201.518 15.7771V8.01821H203.621V22.2701Z" fill="#252525"/>
<path d="M212.014 9.90328H209.634V22.2701H207.485V9.90328H205.106V8.01821H212.014V9.90328Z" fill="#252525"/>
<path d="M219.485 22.2701H213.499V8.01821H219.429V9.90328H215.657V14.065H218.903V15.9137H215.657V20.385H219.485V22.2701Z" fill="#252525"/>
<path d="M228.735 22.2701H226.485L224.105 15.6496C224.105 15.6496 224.105 15.2215 224.105 14.3655H226.226V9.84864H223.506V22.2701H221.347V8.01821H227.075C227.942 8.01821 228.375 8.45533 228.375 9.32957V14.5112C228.375 15.1123 228.169 15.5008 227.757 15.6769C227.536 15.7679 227.069 15.8135 226.356 15.8135L228.735 22.2701Z" fill="#252525"/>
<path d="M237.746 22.2701H235.855L232.396 13.3001C232.489 13.7372 232.535 14.0802 232.535 14.3291V22.2701H230.432V8.01821H232.323L235.781 16.8061C235.689 16.369 235.643 16.026 235.643 15.7771V8.01821H237.746V22.2701Z" fill="#252525"/>
<path d="M247.181 22.2701H245.041L244.608 19.5654H241.905L241.472 22.2701H239.341V22.2336L242.136 8H244.405L247.181 22.2701ZM244.303 17.735L243.252 11.3057L242.191 17.735H244.303Z" fill="#252525"/>
<path d="M255.039 9.90328H252.659V22.2701H250.51V9.90328H248.131V8.01821H255.039V9.90328Z" fill="#252525"/>
<path d="M258.719 22.2701H256.561V8.01821H258.719V22.2701Z" fill="#252525"/>
<path d="M268.145 20.9678C268.145 21.836 267.708 22.2701 266.835 22.2701H262.15C261.295 22.2701 260.868 21.836 260.868 20.9678V9.32957C260.868 8.45533 261.295 8.01821 262.15 8.01821H266.835C267.708 8.01821 268.145 8.45533 268.145 9.32957V20.9678ZM265.986 20.4396V9.84864H263.026V20.4396H265.986Z" fill="#252525"/>
<path d="M277.58 22.2701H275.689L272.23 13.3001C272.323 13.7372 272.369 14.0802 272.369 14.3291V22.2701H270.266V8.01821H272.157L275.615 16.8061C275.523 16.369 275.477 16.026 275.477 15.7771V8.01821H277.58V22.2701Z" fill="#252525"/>
<path d="M287.015 22.2701H284.875L284.442 19.5654H281.739L281.306 22.2701H279.175V22.2336L281.97 8H284.239L287.015 22.2701ZM284.137 17.735L283.086 11.3057L282.025 17.735H284.137Z" fill="#252525"/>
<path d="M294.273 22.2701H288.601V8.01821H290.759V20.3668H294.273V22.2701Z" fill="#252525"/>
<path d="M198.908 31.615H196.529V43.9818H194.38V31.615H192V29.7299H198.908V31.615Z" fill="#252525"/>
<path d="M207.67 42.6795C207.67 43.5477 207.234 43.9818 206.36 43.9818H201.675C200.82 43.9818 200.393 43.5477 200.393 42.6795V31.0413C200.393 30.167 200.82 29.7299 201.675 29.7299H206.36C207.234 29.7299 207.67 30.167 207.67 31.0413V42.6795ZM205.512 42.1514V31.5604H202.551V42.1514H205.512Z" fill="#252525"/>
<path d="M217.013 42.6795C217.013 43.5477 216.57 43.9818 215.685 43.9818H211.101C210.228 43.9818 209.791 43.5477 209.791 42.6795V29.7299H211.949V42.1514H214.855V29.7299H217.013V42.6795Z" fill="#252525"/>
<path d="M226.522 43.9818H224.271L221.892 37.3613C221.892 37.3613 221.892 36.9333 221.892 36.0772H224.013V31.5604H221.292V43.9818H219.134V29.7299H224.862C225.729 29.7299 226.162 30.167 226.162 31.0413V36.2229C226.162 36.824 225.956 37.2125 225.544 37.3886C225.323 37.4797 224.856 37.5252 224.142 37.5252L226.522 43.9818Z" fill="#252525"/>
<path d="M235.136 42.6795C235.136 43.5477 234.7 43.9818 233.826 43.9818H229.482C228.615 43.9818 228.182 43.5477 228.182 42.6795V39.2828H230.34V42.1878H232.978V39.3921L228.652 35.3487C228.339 35.0512 228.182 34.6718 228.182 34.2104V31.0413C228.182 30.167 228.615 29.7299 229.482 29.7299H233.826C234.7 29.7299 235.136 30.161 235.136 31.0231V34.2104H232.978V31.5239H230.34V34.1011L234.666 38.1262C234.979 38.4176 235.136 38.8032 235.136 39.2828V42.6795Z" fill="#252525"/>
<path d="M249.432 37.4706H248.417V43.9818H242.763C241.896 43.9818 241.463 43.5538 241.463 42.6978V38.3539C241.463 37.8925 241.616 37.5282 241.924 37.2611C242.287 37.0183 242.649 36.7785 243.012 36.5417C242.662 36.311 242.311 36.0772 241.961 35.8405C241.653 35.5794 241.5 35.2273 241.5 34.7841V31.0231C241.5 30.161 241.936 29.7299 242.809 29.7299H247.19C248.057 29.7299 248.491 30.161 248.491 31.0231V33.9827H246.379V31.5239H243.639V34.9753L244.617 35.6492H249.432V37.4706ZM246.314 42.1878V37.4706H244.562L243.575 38.1627V42.1878H246.314Z" fill="#252525"/>
<path d="M261.643 31.615H259.263V43.9818H257.114V31.615H254.734V29.7299H261.643V31.615Z" fill="#252525"/>
<path d="M270.515 43.9818H268.265L265.885 37.3613C265.885 37.3613 265.885 36.9333 265.885 36.0772H268.006V31.5604H265.286V43.9818H263.127V29.7299H268.855C269.722 29.7299 270.155 30.167 270.155 31.0413V36.2229C270.155 36.824 269.949 37.2125 269.537 37.3886C269.316 37.4797 268.849 37.5252 268.136 37.5252L270.515 43.9818Z" fill="#252525"/>
<path d="M279.526 43.9818H277.386L276.953 41.2771H274.25L273.817 43.9818H271.686V43.9454L274.481 29.7117H276.75L279.526 43.9818ZM276.648 39.4467L275.597 33.0174L274.536 39.4467H276.648Z" fill="#252525"/>
<path d="M288.297 29.7299L285.53 44H283.381L280.623 29.7299H282.791L284.405 39.5013C284.417 39.7806 284.436 40.1874 284.46 40.7216C284.454 40.4424 284.472 40.0356 284.515 39.5013L286.139 29.7299H288.297Z" fill="#252525"/>
<path d="M295.574 43.9818H289.902V29.7299H292.06V42.0785H295.574V43.9818Z" fill="#252525"/>
<path d="M303.22 43.9818H297.234V29.7299H303.164V31.615H299.392V35.7767H302.639V37.6254H299.392V42.0967H303.22V43.9818Z" fill="#252525"/>
<path d="M312 42.6795C312 43.5477 311.563 43.9818 310.69 43.9818H306.346C305.479 43.9818 305.046 43.5477 305.046 42.6795V39.2828H307.204V42.1878H309.842V39.3921L305.516 35.3487C305.202 35.0512 305.046 34.6718 305.046 34.2104V31.0413C305.046 30.167 305.479 29.7299 306.346 29.7299H310.69C311.563 29.7299 312 30.161 312 31.0231V34.2104H309.842V31.5239H307.204V34.1011L311.53 38.1262C311.843 38.4176 312 38.8032 312 39.2828V42.6795Z" fill="#252525"/>
</svg>
